# This file uses centimeters as units for non-parametric coordinates.

mtllib це.mtl
g default
v 56.051376 -75.022044 -36.877086
v 56.051376 14.829061 -36.877086
v 56.051376 14.829061 -84.502486
v 56.051376 -75.022044 -84.502486
v 56.051376 -30.096491 -84.502486
v 56.051376 -75.022044 -60.689786
v 56.051376 -30.096491 -36.877086
v 56.051376 14.829061 -60.689786
v 56.051376 -30.096491 -60.689786
v 56.051376 -52.559268 -72.596127
v 56.051376 -52.559268 -48.783436
v 56.051376 -7.633715 -48.783427
v 56.051376 -7.633734 -72.596127
v 56.051376 -52.559286 -60.689786
v 56.051376 -30.096491 -48.783436
v 56.051376 -7.633715 -60.689786
v 56.051376 -30.096491 -72.596127
v 56.051376 -75.022044 -72.596127
v 56.051376 -75.022044 -48.783436
v 56.051376 -52.559286 -36.877086
v 56.051376 -7.633715 -36.877086
v 56.051376 14.829061 -48.783436
v 56.051376 14.829061 -72.596127
v 56.051376 -7.633715 -84.502486
v 56.051376 -52.559286 -84.502486
vt 0.375000 0.000000
vt 0.375000 0.250000
vt 0.125000 0.250000
vt 0.125000 0.000000
vt 0.250000 0.125000
vt 0.250000 0.000000
vt 0.375000 0.125000
vt 0.250000 0.250000
vt 0.125000 0.125000
vt 0.187500 0.062500
vt 0.312500 0.062500
vt 0.312500 0.187500
vt 0.187500 0.187500
vt 0.250000 0.062500
vt 0.312500 0.125000
vt 0.250000 0.187500
vt 0.187500 0.125000
vt 0.187500 0.000000
vt 0.312500 0.000000
vt 0.375000 0.062500
vt 0.375000 0.187500
vt 0.312500 0.250000
vt 0.187500 0.250000
vt 0.125000 0.187500
vt 0.125000 0.062500
vn -1.000000 0.000000 0.000000
vn -1.000000 0.000000 0.000000
vn -1.000000 0.000000 0.000000
vn -1.000000 0.000000 0.000000
vn -1.000000 0.000000 0.000000
vn -1.000000 0.000000 0.000000
vn -1.000000 0.000000 0.000000
vn -1.000000 0.000000 0.000000
vn -1.000000 0.000000 0.000000
vn -1.000000 0.000000 0.000000
vn -1.000000 0.000000 0.000000
vn -1.000000 0.000000 0.000000
vn -1.000000 0.000000 0.000000
vn -1.000000 0.000000 0.000000
vn -1.000000 0.000000 0.000000
vn -1.000000 0.000000 0.000000
vn -1.000000 0.000000 0.000000
vn -1.000000 0.000000 0.000000
vn -1.000000 0.000000 0.000000
vn -1.000000 0.000000 0.000000
vn -1.000000 0.000000 0.000000
vn -1.000000 0.000000 0.000000
vn -1.000000 0.000000 0.000000
vn -1.000000 0.000000 0.000000
vn -1.000000 0.000000 0.000000
s 1
g pCube67
usemtl lambert4SG
f 4/4/1 18/18/2 10/10/3 25/25/4
f 18/18/2 6/6/5 14/14/6 10/10/3
f 10/10/3 14/14/6 9/5/7 17/17/8
f 25/25/4 10/10/3 17/17/8 5/9/9
f 6/6/5 19/19/10 11/11/11 14/14/6
f 19/19/10 1/1/12 20/20/13 11/11/11
f 11/11/11 20/20/13 7/7/14 15/15/15
f 14/14/6 11/11/11 15/15/15 9/5/7
f 9/5/7 15/15/15 12/12/16 16/16/17
f 15/15/15 7/7/14 21/21/18 12/12/16
f 12/12/16 21/21/18 2/2/19 22/22/20
f 16/16/17 12/12/16 22/22/20 8/8/21
f 5/9/9 17/17/8 13/13/22 24/24/23
f 17/17/8 9/5/7 16/16/17 13/13/22
f 13/13/22 16/16/17 8/8/21 23/23/24
f 24/24/23 13/13/22 23/23/24 3/3/25
